# xmcd
#
# Track frame offsets:
#	150
#	17830
#	38607
#	53775
#	70677
#	88015
#	107930
#	124525
#	140580
#	156785
#	174655
#	196497
#	213005
#	231782
#	249587
#	267212
#
# Disc length: 3887
#
# Revision: 1
# Processed by: cddbd v1.5.1PL0 Copyright (c) Steve Scherf et al.
# Submitted via: OrangeCD 5.2
# Normalized: r0:DSETVAR1
#
DISCID=d90f2d10
DTITLE=Various Artist - Motown Year By Year - 1980
DYEAR=1995
DGENRE=Motown Compilation
TTITLE0=Diana Ross - I'm Coming Out
TTITLE1=Stevie Wonder - I Ain't Gonna Stand For It
TTITLE2=The Commodores - Old-Fashion Love
TTITLE3=Smokey Robinson - Let Me Be
TTITLE4=Teena Marie - I Need Your Lovin'
TTITLE5=Switch - Love Over And Over Again
TTITLE6=Billy Preston and Syreeta - With You I'm Born Again
TTITLE7=Jermaine Jackson - Lets Get Serious
TTITLE8=Rick James - Big Time
TTITLE9=Teena Marie - Behind The Groove
TTITLE10=Stevie Wonder - Master Blaster (Jammin')
TTITLE11=Diana Ross - Upside Down
TTITLE12=The Temptations - Power
TTITLE13=Diana Ross - It's My Turn
TTITLE14=Mary Wilson - Pick Up The Pieces
TTITLE15=Diana Ross - I'm Coming Ouy (12" Mix)
EXTD=
EXTT0=
EXTT1=
EXTT2=
EXTT3=
EXTT4=
EXTT5=
EXTT6=
EXTT7=
EXTT8=
EXTT9=
EXTT10=
EXTT11=
EXTT12=
EXTT13=
EXTT14=
EXTT15=
PLAYORDER=
